#Comment line ignore any data following # character 
#Hierarchical Translation and Rotation (.htr) file 
[Header]	
#Header keywords are followed by a single value 
FileType HTR		#Single word string
DataType HTRS		#Translation followed by rotation and scale data
FileVersion 1		#integer
NumSegments 84		#integer
NumFrames 2		#integer
DataFrameRate 30		#integer, data frame rate in this file
EulerRotationOrder ZYX
CalibrationUnits mm
RotationUnits Degrees
GlobalAxisofGravity Y
BoneLengthAxis Y
ScaleFactor 1.00
[SegmentNames&Hierarchy]
#CHILD	PARENT
MASTER GLOBAL
root MASTER
chest root
L_mid_tent01 root
R_mid_tent01 root
spine01 root
Bip01_Neck chest
L_humerus chest
R_humerus chest
weapon_bone chest
Bip01_Head Bip01_Neck
eye_left_bone Bip01_Head
eye_right_bone Bip01_Head
L_forearm L_humerus
L_front_hand L_forearm
L_weapon_bone L_forearm
L_front_hand01_01 L_front_hand
L_front_hand02_01 L_front_hand
L_front_hand03_01 L_front_hand
L_front_hand01_02 L_front_hand01_01
L_front_hand02_02 L_front_hand02_01
L_front_hand03_02 L_front_hand03_01
R_forearm R_humerus
R_front_hand R_forearm
R_weapon_bone R_forearm
R_front_hand01_01 R_front_hand
R_front_hand02_01 R_front_hand
R_front_hand03_01 R_front_hand
R_front_hand01_02 R_front_hand01_01
R_front_hand02_02 R_front_hand02_01
R_front_hand03_02 R_front_hand03_01
null_rope01_connect L_mid_tent01
Rope1_Seg01 null_rope01_connect
Rope1_Seg02 Rope1_Seg01
Rope1_Seg03 Rope1_Seg02
Rope1_Seg04 Rope1_Seg03
Rope1_Seg05 Rope1_Seg04
Rope1_Seg06 Rope1_Seg05
Rope1_Seg07 Rope1_Seg06
Rope1_Seg09 Rope1_Seg07
L_mid_hand01 Rope1_Seg09
L_mid_hand02 Rope1_Seg09
L_mid_hand03 Rope1_Seg09
null_rope02_connect R_mid_tent01
Rope2_Seg01 null_rope02_connect
Rope2_Seg02 Rope2_Seg01
Rope2_Seg03 Rope2_Seg02
Rope2_Seg04 Rope2_Seg03
Rope2_Seg05 Rope2_Seg04
Rope2_Seg06 Rope2_Seg05
Rope2_Seg07 Rope2_Seg06
Rope2_Seg09 Rope2_Seg07
R_mid_hand01 Rope2_Seg09
R_mid_hand02 Rope2_Seg09
R_mid_hand03 Rope2_Seg09
spine02 spine01
spine03 spine02
pelvis spine03
null_rope03_connect pelvis
null_rope04_connect pelvis
Rope3_Seg01 null_rope03_connect
Rope3_Seg02 Rope3_Seg01
Rope3_Seg03 Rope3_Seg02
Rope3_Seg04 Rope3_Seg03
Rope3_Seg05 Rope3_Seg04
Rope3_Seg06 Rope3_Seg05
Rope3_Seg07 Rope3_Seg06
Rope3_Seg08 Rope3_Seg07
Rope3_Seg09 Rope3_Seg08
R_rear_hand01 Rope3_Seg09
R_rear_hand02 Rope3_Seg09
R_rear_hand03 Rope3_Seg09
Rope4_Seg01 null_rope04_connect
Rope4_Seg02 Rope4_Seg01
Rope4_Seg03 Rope4_Seg02
Rope4_Seg04 Rope4_Seg03
Rope4_Seg05 Rope4_Seg04
Rope4_Seg06 Rope4_Seg05
Rope4_Seg07 Rope4_Seg06
Rope4_Seg08 Rope4_Seg07
Rope4_Seg09 Rope4_Seg08
L_rear_hand01 Rope4_Seg09
L_rear_hand02 Rope4_Seg09
L_rear_hand03 Rope4_Seg09
[BasePosition]
#SegmentName Tx, Ty, Tz, Rx, Ry, Rz, BoneLength
MASTER 0.000000 0.000000 0.000000 -90.000000 0.000000 0.000000 10.000000 
root 0.000000 0.000000 0.000000 0.000000 0.000000 0.000000 10.000000 
chest 0.000000 0.000000 0.000000 0.000000 0.000000 0.000000 10.000000 
L_mid_tent01 0.000000 0.000000 0.000000 0.000000 0.000000 0.000000 10.000000 
R_mid_tent01 0.000000 0.000000 0.000000 0.000000 0.000000 0.000000 10.000000 
spine01 0.000000 0.000000 0.000000 0.000000 0.000000 0.000000 10.000000 
Bip01_Neck 0.000000 0.000000 0.000000 0.000000 0.000000 0.000000 10.000000 
L_humerus 0.000000 0.000000 0.000000 0.000000 0.000000 0.000000 10.000000 
R_humerus 0.000000 0.000000 0.000000 0.000000 0.000000 0.000000 10.000000 
weapon_bone 0.000000 0.000000 0.000000 0.000000 0.000000 0.000000 10.000000 
Bip01_Head 0.000000 0.000000 0.000000 0.000000 0.000000 0.000000 10.000000 
eye_left_bone 0.000000 0.000000 0.000000 0.000000 0.000000 0.000000 10.000000 
eye_right_bone 0.000000 0.000000 0.000000 0.000000 0.000000 0.000000 10.000000 
L_forearm 0.000000 0.000000 0.000000 0.000000 0.000000 0.000000 10.000000 
L_front_hand 0.000000 0.000000 0.000000 0.000000 0.000000 0.000000 10.000000 
L_weapon_bone 0.000000 0.000000 0.000000 0.000000 0.000000 0.000000 10.000000 
L_front_hand01_01 0.000000 0.000000 0.000000 0.000000 0.000000 0.000000 10.000000 
L_front_hand02_01 0.000000 0.000000 0.000000 0.000000 0.000000 0.000000 10.000000 
L_front_hand03_01 0.000000 0.000000 0.000000 0.000000 0.000000 0.000000 10.000000 
L_front_hand01_02 0.000000 0.000000 0.000000 0.000000 0.000000 0.000000 10.000000 
L_front_hand02_02 0.000000 0.000000 0.000000 0.000000 0.000000 0.000000 10.000000 
L_front_hand03_02 0.000000 0.000000 0.000000 0.000000 0.000000 0.000000 10.000000 
R_forearm 0.000000 0.000000 0.000000 0.000000 0.000000 0.000000 10.000000 
R_front_hand 0.000000 0.000000 0.000000 0.000000 0.000000 0.000000 10.000000 
R_weapon_bone 0.000000 0.000000 0.000000 0.000000 0.000000 0.000000 10.000000 
R_front_hand01_01 0.000000 0.000000 0.000000 0.000000 0.000000 0.000000 10.000000 
R_front_hand02_01 0.000000 0.000000 0.000000 0.000000 0.000000 0.000000 10.000000 
R_front_hand03_01 0.000000 0.000000 0.000000 0.000000 0.000000 0.000000 10.000000 
R_front_hand01_02 0.000000 0.000000 0.000000 0.000000 0.000000 0.000000 10.000000 
R_front_hand02_02 0.000000 0.000000 0.000000 0.000000 0.000000 0.000000 10.000000 
R_front_hand03_02 0.000000 0.000000 0.000000 0.000000 0.000000 0.000000 10.000000 
null_rope01_connect 0.000000 0.000000 0.000000 0.000000 0.000000 0.000000 10.000000 
Rope1_Seg01 0.000000 0.000000 0.000000 0.000000 0.000000 0.000000 10.000000 
Rope1_Seg02 0.000000 0.000000 0.000000 0.000000 0.000000 0.000000 10.000000 
Rope1_Seg03 0.000000 0.000000 0.000000 0.000000 0.000000 0.000000 10.000000 
Rope1_Seg04 0.000000 0.000000 0.000000 0.000000 0.000000 0.000000 10.000000 
Rope1_Seg05 0.000000 0.000000 0.000000 0.000000 0.000000 0.000000 10.000000 
Rope1_Seg06 0.000000 0.000000 0.000000 0.000000 0.000000 0.000000 10.000000 
Rope1_Seg07 0.000000 0.000000 0.000000 0.000000 0.000000 0.000000 10.000000 
Rope1_Seg09 0.000000 0.000000 0.000000 0.000000 0.000000 0.000000 10.000000 
L_mid_hand01 0.000000 0.000000 0.000000 0.000000 0.000000 0.000000 10.000000 
L_mid_hand02 0.000000 0.000000 0.000000 0.000000 0.000000 0.000000 10.000000 
L_mid_hand03 0.000000 0.000000 0.000000 0.000000 0.000000 0.000000 10.000000 
null_rope02_connect 0.000000 0.000000 0.000000 0.000000 0.000000 0.000000 10.000000 
Rope2_Seg01 0.000000 0.000000 0.000000 0.000000 0.000000 0.000000 10.000000 
Rope2_Seg02 0.000000 0.000000 0.000000 0.000000 0.000000 0.000000 10.000000 
Rope2_Seg03 0.000000 0.000000 0.000000 0.000000 0.000000 0.000000 10.000000 
Rope2_Seg04 0.000000 0.000000 0.000000 0.000000 0.000000 0.000000 10.000000 
Rope2_Seg05 0.000000 0.000000 0.000000 0.000000 0.000000 0.000000 10.000000 
Rope2_Seg06 0.000000 0.000000 0.000000 0.000000 0.000000 0.000000 10.000000 
Rope2_Seg07 0.000000 0.000000 0.000000 0.000000 0.000000 0.000000 10.000000 
Rope2_Seg09 0.000000 0.000000 0.000000 0.000000 0.000000 0.000000 10.000000 
R_mid_hand01 0.000000 0.000000 0.000000 0.000000 0.000000 0.000000 10.000000 
R_mid_hand02 0.000000 0.000000 0.000000 0.000000 0.000000 0.000000 10.000000 
R_mid_hand03 0.000000 0.000000 0.000000 0.000000 0.000000 0.000000 10.000000 
spine02 0.000000 0.000000 0.000000 0.000000 0.000000 0.000000 10.000000 
spine03 0.000000 0.000000 0.000000 0.000000 0.000000 0.000000 10.000000 
pelvis 0.000000 0.000000 0.000000 0.000000 0.000000 0.000000 10.000000 
null_rope03_connect 0.000000 0.000000 0.000000 0.000000 0.000000 0.000000 10.000000 
null_rope04_connect 0.000000 0.000000 0.000000 0.000000 0.000000 0.000000 10.000000 
Rope3_Seg01 0.000000 0.000000 0.000000 0.000000 0.000000 0.000000 10.000000 
Rope3_Seg02 0.000000 0.000000 0.000000 0.000000 0.000000 0.000000 10.000000 
Rope3_Seg03 0.000000 0.000000 0.000000 0.000000 0.000000 0.000000 10.000000 
Rope3_Seg04 0.000000 0.000000 0.000000 0.000000 0.000000 0.000000 10.000000 
Rope3_Seg05 0.000000 0.000000 0.000000 0.000000 0.000000 0.000000 10.000000 
Rope3_Seg06 0.000000 0.000000 0.000000 0.000000 0.000000 0.000000 10.000000 
Rope3_Seg07 0.000000 0.000000 0.000000 0.000000 0.000000 0.000000 10.000000 
Rope3_Seg08 0.000000 0.000000 0.000000 0.000000 0.000000 0.000000 10.000000 
Rope3_Seg09 0.000000 0.000000 0.000000 0.000000 0.000000 0.000000 10.000000 
R_rear_hand01 0.000000 0.000000 0.000000 0.000000 0.000000 0.000000 10.000000 
R_rear_hand02 0.000000 0.000000 0.000000 0.000000 0.000000 0.000000 10.000000 
R_rear_hand03 0.000000 0.000000 0.000000 0.000000 0.000000 0.000000 10.000000 
Rope4_Seg01 0.000000 0.000000 0.000000 0.000000 0.000000 0.000000 10.000000 
Rope4_Seg02 0.000000 0.000000 0.000000 0.000000 0.000000 0.000000 10.000000 
Rope4_Seg03 0.000000 0.000000 0.000000 0.000000 0.000000 0.000000 10.000000 
Rope4_Seg04 0.000000 0.000000 0.000000 0.000000 0.000000 0.000000 10.000000 
Rope4_Seg05 0.000000 0.000000 0.000000 0.000000 0.000000 0.000000 10.000000 
Rope4_Seg06 0.000000 0.000000 0.000000 0.000000 0.000000 0.000000 10.000000 
Rope4_Seg07 0.000000 0.000000 0.000000 0.000000 0.000000 0.000000 10.000000 
Rope4_Seg08 0.000000 0.000000 0.000000 0.000000 0.000000 0.000000 10.000000 
Rope4_Seg09 0.000000 0.000000 0.000000 0.000000 0.000000 0.000000 10.000000 
L_rear_hand01 0.000000 0.000000 0.000000 0.000000 0.000000 0.000000 10.000000 
L_rear_hand02 0.000000 0.000000 0.000000 0.000000 0.000000 0.000000 10.000000 
L_rear_hand03 0.000000 0.000000 0.000000 0.000000 0.000000 0.000000 10.000000 
#Beginning of Data. Separated by tabs
#Fr	Tx	Ty	Tz	Rx	Ry	Rz	SF
[MASTER]
25 -1354.124390 163.131348 1515.048706 0.001660 0.001660 0.001660 2038.538086
26 -1354.124390 163.131348 1515.048706 0.001660 0.001660 0.001660 2038.538086
[root]
25 20.013123 -118.897354 462.015350 -165.082199 -13.198525 -70.220703 477.488556
26 20.013123 -118.897354 462.015350 -165.373856 -13.136685 -70.047806 477.488556
[chest]
25 -84.512650 -34.090519 0.000000 -40.317467 -24.952412 -178.798965 91.129311
26 -84.512650 -34.090519 0.000000 -40.268452 -25.204506 -178.595749 91.129311
[L_mid_tent01]
25 27.299154 22.179235 -249.918716 -9.585171 14.470808 42.777245 252.381714
26 27.299156 22.179239 -249.918716 -9.196242 14.521962 44.159027 252.381714
[R_mid_tent01]
25 23.228794 24.509907 226.238495 179.233994 -20.342466 30.027519 228.744751
26 23.228794 24.509907 226.238495 179.531631 -20.645195 29.661911 228.744751
[spine01]
25 -0.361383 -0.195265 0.000000 0.001957 0.001296 22.960537 0.410763
26 -0.361383 -0.195265 0.000000 0.001957 0.001296 22.944387 0.410763
[Bip01_Neck]
25 165.484543 71.581718 0.000119 176.643677 -1.657967 43.431911 180.302734
26 165.484543 71.581718 0.000119 176.643677 -1.657967 43.431911 180.302734
[L_humerus]
25 -13.983130 -135.272980 -120.471481 154.024048 71.619537 -113.921211 181.680161
26 -13.983130 -135.272980 -120.471481 153.168900 72.008682 -114.830658 181.680161
[R_humerus]
25 -13.983309 -135.273102 125.287651 -71.540810 -57.864750 171.766983 184.909012
26 -13.983309 -135.273102 125.287651 -71.646332 -58.481392 171.706680 184.909012
[weapon_bone]
25 235.964890 -300.705902 0.000000 0.000000 -89.951546 -128.212341 382.234833
26 235.964890 -300.705902 0.000000 0.000000 -89.951546 -128.212341 382.234833
[Bip01_Head]
25 213.501495 185.556015 13.835980 -13.267281 2.156278 -43.867805 283.205505
26 213.482239 185.609665 13.143613 -12.045591 2.608715 -43.863274 283.193176
[eye_left_bone]
25 -24.626970 125.451866 -64.772606 0.000000 -90.000000 -99.840431 143.318359
26 -24.626970 125.451866 -64.772606 0.000000 -90.000000 -99.840431 143.318359
[eye_right_bone]
25 -24.626970 125.451866 64.327362 0.000000 -89.965736 80.156380 143.117676
26 -24.626970 125.451866 64.327362 0.000000 -89.965736 80.156380 143.117676
[L_forearm]
25 322.776093 0.000000 -0.000119 0.000184 -0.002340 -99.001808 322.776093
26 322.776093 0.000000 -0.000119 0.000190 -0.002340 -99.302818 322.776093
[L_front_hand]
25 241.149185 -0.042021 -3.300071 91.825508 -1.837149 -27.424795 241.171753
26 241.149185 -0.042021 -3.300071 51.153255 -1.834118 -27.422729 241.171753
[L_weapon_bone]
25 156.183838 0.000000 0.000000 0.000014 0.000007 0.000001 156.183838
26 156.183838 0.000000 0.000000 0.000014 0.000007 0.000001 156.183838
[L_front_hand01_01]
25 86.095154 20.947098 -0.655860 -0.366594 -0.477154 75.385574 88.609184
26 86.095154 20.947098 -0.655860 -0.366594 -0.477154 75.385574 88.609184
[L_front_hand02_01]
25 86.935165 -11.437475 24.513514 154.399796 -59.883835 -61.369587 91.046425
26 86.935165 -11.437475 24.513514 154.399796 -59.883835 -61.369587 91.046425
[L_front_hand03_01]
25 86.637497 -14.123976 -20.424902 -153.913849 58.118122 -62.702866 90.126129
26 86.637497 -14.123976 -20.424902 -153.913849 58.118122 -62.702866 90.126129
[L_front_hand01_02]
25 71.020905 -0.000179 0.000030 0.001468 0.001832 -12.590687 71.020905
26 71.020905 -0.000179 0.000030 0.001284 0.001965 -23.693483 71.020905
[L_front_hand02_02]
25 71.020927 -0.000119 0.000060 0.001468 0.001832 -12.590687 71.020927
26 71.020927 -0.000119 0.000060 0.001284 0.001965 -23.693483 71.020927
[L_front_hand03_02]
25 71.020905 -0.000060 0.000060 0.001468 0.001832 -12.590687 71.020905
26 71.020905 -0.000060 0.000060 0.001284 0.001965 -23.693483 71.020905
[R_forearm]
25 322.776428 -0.000060 0.000030 0.211087 0.023277 -97.560760 322.776428
26 322.776428 -0.000060 0.000030 0.209782 0.024916 -97.862877 322.776428
[R_front_hand]
25 238.847015 -0.006795 2.210259 -2.635298 -10.645461 -26.312506 238.857239
26 238.847015 -0.006795 2.210259 -2.635298 -10.645461 -26.312506 238.857239
[R_weapon_bone]
25 155.664093 0.002503 -0.000030 0.003487 0.001180 -90.988930 155.664078
26 155.664093 0.002503 -0.000030 0.003487 0.001180 -90.988930 155.664078
[R_front_hand01_01]
25 87.624611 14.231146 22.918642 -154.633514 -59.950626 61.746063 91.683487
26 87.624611 14.231146 22.918642 -154.633499 -59.950619 61.746044 91.683487
[R_front_hand02_01]
25 89.356956 14.367283 -19.491137 154.602676 58.302864 63.744400 92.579636
26 89.356956 14.367283 -19.491137 154.602661 58.302849 63.744389 92.579636
[R_front_hand03_01]
25 87.286232 -22.307278 -0.143439 0.162155 -0.423168 -75.767921 90.091743
26 87.286232 -22.307278 -0.143439 0.162155 -0.423168 -75.767921 90.091743
[R_front_hand01_02]
25 71.020905 0.000060 0.000119 0.002323 -0.000334 106.381714 71.020905
26 71.020905 0.000060 0.000119 0.002323 -0.000334 106.381714 71.020905
[R_front_hand02_02]
25 71.020844 -0.000030 -0.000119 0.002323 -0.000334 106.381714 71.020836
26 71.020844 -0.000030 -0.000119 0.002323 -0.000334 106.381714 71.020836
[R_front_hand03_02]
25 71.020905 0.000000 0.000030 0.002323 -0.000334 106.381714 71.020905
26 71.020905 0.000000 0.000030 0.002323 -0.000334 106.381714 71.020905
[null_rope01_connect]
25 328.732483 0.000000 -0.000238 -163.228851 -3.853770 -115.530685 328.732483
26 328.732483 0.000000 -0.000238 -163.337723 -3.731586 -116.662735 328.732483
[Rope1_Seg01]
25 0.000105 -0.000064 0.000048 29.371368 -67.038925 80.731064 0.000132
26 0.000109 -0.000065 0.000044 33.181561 -66.601898 76.522263 0.000134
[Rope1_Seg02]
25 139.999863 -0.000179 0.000000 0.266766 5.341003 2.073862 139.999863
26 139.999863 -0.000179 0.000000 0.223101 5.425563 2.478144 139.999863
[Rope1_Seg03]
25 139.999924 0.000060 -0.000060 0.132584 9.086742 3.520375 139.999924
26 139.999924 0.000060 -0.000060 0.112825 9.277261 4.244324 139.999924
[Rope1_Seg04]
25 139.999924 -0.000060 -0.000119 -1.507731 21.572416 6.177847 139.999924
26 139.999924 -0.000060 -0.000119 -1.159808 21.838110 8.126811 139.999924
[Rope1_Seg05]
25 139.999832 0.000119 -0.000060 -4.440637 24.885078 14.087149 139.999832
26 139.999832 0.000119 -0.000060 -3.321456 23.597057 15.444301 139.999832
[Rope1_Seg06]
25 139.999954 0.000119 -0.000060 -2.376390 2.472766 20.510193 139.999954
26 139.999954 0.000119 -0.000060 -1.749065 3.372179 18.909790 139.999954
[Rope1_Seg07]
25 139.999985 0.000060 0.000000 0.956425 5.093114 16.077488 139.999985
26 139.999985 0.000060 0.000000 1.072227 5.883751 15.295707 139.999985
[Rope1_Seg09]
25 121.602913 0.000119 -0.000089 -89.793175 -1.359789 0.847147 121.602913
26 121.602913 0.000119 -0.000089 -89.793175 -1.359789 0.847147 121.602913
[L_mid_hand01]
25 103.859421 1.038730 8.195221 121.913704 -62.028732 -29.342178 104.187431
26 103.859421 1.038730 8.195221 124.908302 -64.325737 -32.698208 104.187431
[L_mid_hand02]
25 105.572853 -4.139662 -10.864139 -162.798126 41.730762 -64.459190 106.211075
26 105.572853 -4.139662 -10.864139 -165.192154 42.484787 -68.028900 106.211075
[L_mid_hand03]
25 104.641464 17.579376 -3.913581 -8.147993 16.962013 67.754318 106.179977
26 104.641464 17.579376 -3.913581 -7.308155 17.330339 70.609505 106.179977
[null_rope02_connect]
25 328.732849 0.000179 -0.000119 -14.215073 19.876402 92.423897 328.732849
26 328.732849 0.000179 -0.000119 -14.499952 19.767345 91.932510 328.732849
[Rope2_Seg01]
25 0.000117 0.000141 -0.000105 77.944077 71.738342 14.827476 0.000211
26 0.000120 0.000142 -0.000109 76.728355 72.820229 13.370645 0.000215
[Rope2_Seg02]
25 139.999741 -0.000060 -0.000119 -0.900047 17.120018 -9.868507 139.999756
26 139.999741 -0.000060 -0.000119 -0.849938 16.015640 -8.636394 139.999756
[Rope2_Seg03]
25 140.000107 0.000030 0.000000 -0.445224 34.786079 -22.624296 140.000107
26 140.000107 0.000030 0.000000 -3.435970 36.651768 -22.239162 140.000107
[Rope2_Seg04]
25 139.999802 0.000000 -0.000060 141.460770 24.846315 -19.390465 139.999802
26 139.999802 0.000000 -0.000060 158.591888 29.635607 -19.783104 139.999802
[Rope2_Seg05]
25 139.999985 -0.000060 0.000119 -0.601897 -4.025179 1.962841 139.999985
26 139.999985 -0.000060 0.000119 -8.611574 -1.199415 3.356071 139.999985
[Rope2_Seg06]
25 139.999893 -0.000030 -0.000119 -7.287692 0.372645 2.089196 139.999893
26 139.999893 -0.000030 -0.000119 -14.736644 3.422303 2.917107 139.999893
[Rope2_Seg07]
25 139.999893 0.000060 -0.000060 0.593706 -2.332175 0.805801 139.999893
26 139.999893 0.000060 -0.000060 -2.852503 -1.154496 1.455319 139.999893
[Rope2_Seg09]
25 121.338966 0.000089 -0.000060 33.793236 -1.359788 -0.847141 121.338966
26 121.338966 0.000089 -0.000060 33.793236 -1.359788 -0.847141 121.338966
[R_mid_hand01]
25 104.680779 11.144459 -10.335981 -32.351303 36.833485 46.151863 105.778534
26 104.680779 11.144459 -10.335981 -29.839321 38.782555 50.244747 105.778534
[R_mid_hand02]
25 104.070427 2.443552 8.231699 67.067345 -50.463909 18.609608 104.424065
26 104.070427 2.443552 8.231699 65.096062 -53.911839 21.097576 104.424065
[R_mid_hand03]
25 106.028137 -11.221827 -5.996406 -171.852554 13.596701 -55.941738 106.788818
26 106.028137 -11.221827 -5.996406 -172.771393 14.103963 -59.790871 106.788818
[spine02]
25 129.756927 0.001550 0.000119 -0.707433 -3.997540 2.164351 129.756927
26 129.756927 0.001550 0.000119 -0.674826 -4.002980 1.725230 129.756927
[spine03]
25 78.614044 0.081159 -4.898990 1.246807 4.089597 7.089966 78.766579
26 78.614044 0.081133 -4.898990 1.265913 4.084441 7.351722 78.766579
[pelvis]
25 169.435242 0.051022 0.000000 -0.000022 -0.191402 -4.915868 169.435257
26 169.435242 0.051022 0.000000 -0.000948 -0.191402 -4.361543 169.435257
[null_rope03_connect]
25 -1.257226 -2.466202 137.391083 -172.671555 -18.511745 -96.923447 137.418976
26 -1.257226 -2.466202 137.391083 -172.684631 -18.271564 -97.131027 137.418976
[null_rope04_connect]
25 -1.259640 -2.480268 -137.844437 -172.671555 -18.511745 -96.923447 137.872513
26 -1.259640 -2.480268 -137.844437 -172.684631 -18.271564 -97.131027 137.872513
[Rope3_Seg01]
25 0.000000 0.000000 0.000000 28.153852 26.342728 -53.847580 0.000000
26 0.000000 0.000000 0.000000 29.432936 28.596573 -53.691879 0.000000
[Rope3_Seg02]
25 139.999924 -0.000119 0.000060 4.710023 4.950987 -18.883162 139.999924
26 139.999924 -0.000119 0.000060 4.434937 3.880479 -17.057226 139.999924
[Rope3_Seg03]
25 139.999924 -0.000119 0.000119 -2.976018 5.656046 -42.073723 139.999924
26 139.999924 -0.000119 0.000119 -1.759973 4.409292 -41.154011 139.999924
[Rope3_Seg04]
25 139.999924 0.000119 0.000000 -12.734246 4.014899 -29.122438 139.999924
26 139.999924 0.000119 0.000000 -13.972090 3.024262 -32.924522 139.999924
[Rope3_Seg05]
25 139.999924 -0.000238 0.000060 -17.758284 9.279197 -17.391121 139.999924
26 139.999924 -0.000238 0.000060 -20.545847 10.322913 -18.177368 139.999924
[Rope3_Seg06]
25 139.999893 -0.000119 -0.000060 -23.735428 16.484875 -15.132665 139.999893
26 139.999893 -0.000119 -0.000060 -21.866072 16.364307 -12.336264 139.999893
[Rope3_Seg07]
25 139.999771 0.000060 -0.000119 -10.357272 11.248413 -4.609273 139.999771
26 139.999771 0.000060 -0.000119 -8.728627 9.920309 -3.505778 139.999771
[Rope3_Seg08]
25 139.999985 -0.000060 0.000000 -4.107893 6.113106 -1.347746 139.999985
26 139.999985 -0.000060 0.000000 -3.549849 5.418818 -1.062993 139.999985
[Rope3_Seg09]
25 90.185997 -0.000179 -0.000060 89.793228 -1.359877 -0.847183 90.185997
26 90.185997 -0.000179 -0.000060 89.793228 -1.359877 -0.847183 90.185997
[R_rear_hand01]
25 103.366196 -6.073594 -10.757982 -178.843704 -16.881861 -59.893089 104.101845
26 103.366196 -6.073594 -10.757982 179.543961 -16.381962 -62.968834 104.101845
[R_rear_hand02]
25 100.509819 12.039542 -7.992327 -25.326183 30.360588 49.900955 101.543350
26 100.509819 12.039542 -7.992327 -23.183119 31.959579 54.045364 101.543350
[R_rear_hand03]
25 101.539970 5.215704 5.435467 80.575409 -52.733398 11.389215 101.819031
26 101.539970 5.215704 5.435467 79.633026 -56.564861 12.543675 101.819031
[Rope4_Seg01]
25 0.000010 0.000012 -0.000048 -127.660072 -29.281324 -49.328285 0.000050
26 0.000010 0.000011 -0.000044 -130.551971 -31.064602 -48.648682 0.000046
[Rope4_Seg02]
25 139.999985 0.000060 0.000119 -6.152801 25.812506 2.213758 139.999985
26 139.999985 0.000060 0.000119 -4.533454 24.024542 3.657790 139.999985
[Rope4_Seg03]
25 139.999924 0.000000 -0.000238 3.389924 39.511120 12.260530 139.999924
26 139.999924 0.000000 -0.000238 4.224658 38.948311 14.340966 139.999924
[Rope4_Seg04]
25 139.999985 0.000000 0.000119 2.248243 19.375179 6.500568 139.999985
26 139.999985 0.000000 0.000119 2.282322 20.644417 7.944746 139.999985
[Rope4_Seg05]
25 139.999802 -0.000060 -0.000119 7.384997 16.102184 -2.055833 139.999802
26 139.999802 -0.000060 -0.000119 8.874143 18.031349 -2.385050 139.999802
[Rope4_Seg06]
25 139.999924 0.000000 0.000060 36.163006 29.238161 -13.884042 139.999924
26 139.999924 0.000000 0.000060 39.206734 29.061926 -14.944859 139.999924
[Rope4_Seg07]
25 139.999802 0.000000 0.000000 31.517574 10.846860 -19.095274 139.999802
26 139.999802 0.000000 0.000000 27.957851 8.327794 -17.301483 139.999802
[Rope4_Seg08]
25 139.999924 0.000000 0.000119 9.347841 -0.370366 -9.985405 139.999924
26 139.999924 0.000000 0.000119 8.381609 -0.370529 -8.886072 139.999924
[Rope4_Seg09]
25 90.185791 0.000060 0.000060 -135.617828 2.228885 0.850567 90.185791
26 90.185791 0.000060 0.000060 -135.617828 2.228885 0.850567 90.185791
[L_rear_hand01]
25 101.696655 -8.392275 -7.654577 -17.798241 -35.006115 116.214813 102.329041
26 101.696655 -8.392275 -7.654577 -16.229382 -35.681812 113.503807 102.329041
[L_rear_hand02]
25 102.726799 -1.568258 5.773216 76.414978 65.052933 163.777969 102.900848
26 102.726799 -1.568258 5.773216 75.121269 67.292419 162.363388 102.900848
[L_rear_hand03]
25 104.552910 9.721220 -10.420293 -174.535919 -24.090160 -113.787476 105.519653
26 104.552910 9.721220 -10.420293 -175.569016 -24.291679 -111.264954 105.519653
